<svg width="32" height="32" viewBox="0 0 32 32" fill="none" xmlns="http://www.w3.org/2000/svg">
<rect width="32" height="32" rx="16" fill="#57EFB4"/>
<path fill-rule="evenodd" clip-rule="evenodd" d="M16.4995 8.8501C12.8278 8.8501 9.8501 11.8274 9.8501 15.5003C9.8501 18.438 11.7554 20.9307 14.3979 21.8105C14.7306 21.8713 14.8518 21.6659 14.8518 21.4896C14.8518 21.3316 14.8461 20.9136 14.8429 20.3588C12.9931 20.7605 12.6029 19.4672 12.6029 19.4672C12.3003 18.6989 11.8644 18.4943 11.8644 18.4943C11.2606 18.082 11.9101 18.0902 11.9101 18.0902C12.5775 18.1371 12.9286 18.7756 12.9286 18.7756C13.5218 19.7917 14.4852 19.4982 14.8641 19.328C14.9245 18.8985 15.0964 18.6054 15.2862 18.4392C13.8096 18.271 12.2571 17.7007 12.2571 15.1525C12.2571 14.4262 12.5163 13.8331 12.9417 13.3681C12.8731 13.1999 12.6449 12.5238 13.007 11.6082C13.007 11.6082 13.5651 11.4294 14.8355 12.2895C15.3658 12.1421 15.9349 12.0687 16.5003 12.0658C17.0653 12.0687 17.634 12.1421 18.1651 12.2895C19.4347 11.4294 19.9919 11.6082 19.9919 11.6082C20.3549 12.5238 20.1267 13.1999 20.0585 13.3681C20.4847 13.8331 20.7419 14.4262 20.7419 15.1525C20.7419 17.7073 19.1869 18.2694 17.7058 18.4339C17.9442 18.6393 18.1569 19.0451 18.1569 19.6656C18.1569 20.5543 18.1488 21.2716 18.1488 21.4896C18.1488 21.6676 18.2688 21.8746 18.606 21.8096C21.2465 20.9283 23.1501 18.4376 23.1501 15.5003C23.1501 11.8274 20.1724 8.8501 16.4995 8.8501Z" fill="#222233"/>
</svg>
