<svg width="30" height="32" viewBox="0 0 30 32" fill="none" xmlns="http://www.w3.org/2000/svg">
<path fill-rule="evenodd" clip-rule="evenodd" d="M30 10.1818C30 17.4051 23.3977 20.3636 16.7403 20.3636V30.5455C16.7403 31.3487 15.9983 32 15.0829 32C14.1675 32 13.4254 31.3487 13.4254 30.5455V20.3636V3.2H10.1105V30.5455C10.1105 31.3487 9.36842 32 8.45304 32C7.53766 32 6.79558 31.3487 6.79558 30.5455V3.2H1.8232C0.816133 3.2 -2.74642e-07 2.48367 -2.74642e-07 1.6C-2.74642e-07 0.716334 0.816133 0 1.8232 0H8.45304H13.4254H15.0829H16.7403C23.3977 0 30 2.95855 30 10.1818Z" fill="white"/>
</svg>
